<?xml version="1.0" encoding="UTF-8" standalone="no"?>
<!-- Created with Inkscape (http://www.inkscape.org/) -->

<svg
   xmlns:dc="http://purl.org/dc/elements/1.1/"
   xmlns:cc="http://creativecommons.org/ns#"
   xmlns:rdf="http://www.w3.org/1999/02/22-rdf-syntax-ns#"
   xmlns:svg="http://www.w3.org/2000/svg"
   xmlns="http://www.w3.org/2000/svg"
   xmlns:xlink="http://www.w3.org/1999/xlink"
   xmlns:sodipodi="http://sodipodi.sourceforge.net/DTD/sodipodi-0.dtd"
   xmlns:inkscape="http://www.inkscape.org/namespaces/inkscape"
   width="210mm"
   height="297mm"
   id="svg2"
   version="1.1"
   inkscape:version="0.47 r22583"
   sodipodi:docname="Entwurf.svg">
  <defs
     id="defs4">
    <inkscape:perspective
       sodipodi:type="inkscape:persp3d"
       inkscape:vp_x="0 : 526.18109 : 1"
       inkscape:vp_y="0 : 1000 : 0"
       inkscape:vp_z="744.09448 : 526.18109 : 1"
       inkscape:persp3d-origin="372.04724 : 350.78739 : 1"
       id="perspective10" />
    <inkscape:perspective
       id="perspective2824"
       inkscape:persp3d-origin="0.5 : 0.33333333 : 1"
       inkscape:vp_z="1 : 0.5 : 1"
       inkscape:vp_y="0 : 1000 : 0"
       inkscape:vp_x="0 : 0.5 : 1"
       sodipodi:type="inkscape:persp3d" />
    <inkscape:perspective
       id="perspective3618"
       inkscape:persp3d-origin="0.5 : 0.33333333 : 1"
       inkscape:vp_z="1 : 0.5 : 1"
       inkscape:vp_y="0 : 1000 : 0"
       inkscape:vp_x="0 : 0.5 : 1"
       sodipodi:type="inkscape:persp3d" />
    <filter
       inkscape:collect="always"
       id="filter3632">
      <feGaussianBlur
         inkscape:collect="always"
         stdDeviation="5.6713781"
         id="feGaussianBlur3634" />
    </filter>
    <filter
       inkscape:collect="always"
       id="filter3656">
      <feGaussianBlur
         inkscape:collect="always"
         stdDeviation="4.3038869"
         id="feGaussianBlur3658" />
    </filter>
    <filter
       inkscape:collect="always"
       id="filter3706">
      <feGaussianBlur
         inkscape:collect="always"
         stdDeviation="3.1948362"
         id="feGaussianBlur3708" />
    </filter>
    <inkscape:perspective
       id="perspective3746"
       inkscape:persp3d-origin="0.5 : 0.33333333 : 1"
       inkscape:vp_z="1 : 0.5 : 1"
       inkscape:vp_y="0 : 1000 : 0"
       inkscape:vp_x="0 : 0.5 : 1"
       sodipodi:type="inkscape:persp3d" />
    <filter
       inkscape:collect="always"
       id="filter3779">
      <feGaussianBlur
         inkscape:collect="always"
         stdDeviation="1.131519"
         id="feGaussianBlur3781" />
    </filter>
    <filter
       inkscape:collect="always"
       id="filter3935">
      <feGaussianBlur
         inkscape:collect="always"
         stdDeviation="1.3275511"
         id="feGaussianBlur3937" />
    </filter>
  </defs>
  <sodipodi:namedview
     id="base"
     pagecolor="#ffffff"
     bordercolor="#666666"
     borderopacity="1.0"
     inkscape:pageopacity="0.0"
     inkscape:pageshadow="2"
     inkscape:zoom="0.98994949"
     inkscape:cx="148.21662"
     inkscape:cy="916.60895"
     inkscape:document-units="px"
     inkscape:current-layer="layer1"
     showgrid="false"
     showguides="true"
     inkscape:guide-bbox="true"
     inkscape:window-width="579"
     inkscape:window-height="462"
     inkscape:window-x="441"
     inkscape:window-y="20"
     inkscape:window-maximized="0" />
  <metadata
     id="metadata7">
    <rdf:RDF>
      <cc:Work
         rdf:about="">
        <dc:format>image/svg+xml</dc:format>
        <dc:type
           rdf:resource="http://purl.org/dc/dcmitype/StillImage" />
        <dc:title></dc:title>
      </cc:Work>
    </rdf:RDF>
  </metadata>
  <g
     inkscape:label="Ebene 1"
     inkscape:groupmode="layer"
     id="layer1">
    <image
       xlink:href="file:///C:/Users/Sven/Desktop/2048px-t.png"
       width="203.14281"
       height="198.69659"
       id="image3660"
       x="30.571445"
       y="19.165606"
       style="opacity:1;filter:url(#filter3706)"
       inkscape:export-filename="C:\Users\Sven\Desktop\DESIGN\src\header.png"
       inkscape:export-xdpi="94"
       inkscape:export-ydpi="94" />
    <path
       style="color:#000000;fill:#000000;fill-opacity:1;fill-rule:nonzero;stroke:none;stroke-width:30;marker:none;visibility:visible;display:inline;overflow:visible;enable-background:accumulate;filter:url(#filter3656)"
       d="m 17.71875,185.09375 c 226.28125,0 452.5625,0 678.84375,0 0,-44.38542 0,-88.770833 0,-133.15625 -226.28125,0 -452.5625,0 -678.84375,0 0,44.385417 0,88.77083 0,133.15625 z"
       id="rect3636"
       inkscape:export-filename="C:\Users\Sven\Desktop\DESIGN\src\header22.png"
       inkscape:export-xdpi="94"
       inkscape:export-ydpi="94" />
    <image
       y="324.57785"
       x="-9.1428423"
       id="image3620"
       height="780"
       width="504"
       xlink:href="file:///C:/Users/Sven/Desktop/Mr_Happy.png"
       style="opacity:0.32616487;filter:url(#filter3632)" />
    <rect
       style="color:#000000;fill:#dfdfdf;fill-opacity:1;fill-rule:nonzero;stroke:none;stroke-width:30;marker:none;visibility:visible;display:inline;overflow:visible;enable-background:accumulate"
       id="rect2830"
       width="682.85712"
       height="137.14285"
       x="15.714281"
       y="49.942474"
       rx="0"
       ry="0"
       inkscape:export-filename="C:\Users\Sven\Desktop\DESIGN\src\header22.png"
       inkscape:export-xdpi="94"
       inkscape:export-ydpi="94" />
    <g
       id="g3919"
       style="filter:url(#filter3935)"
       inkscape:export-filename="C:\Users\Sven\Desktop\DESIGN\src\header.png"
       inkscape:export-xdpi="94"
       inkscape:export-ydpi="94">
      <path
         id="text3901"
         d="m 635.53125,115.90625 c -2.97632,4.65122 -7.97775,7.4596 -13.15625,9.03125 0.91827,3.60449 -2.59818,13.90732 3.4375,9.8125 2.5126,-1.14427 4.83106,-2.58552 7.03125,-4.28125 0,6.01042 0,12.02083 0,18.03125 -6.20844,-0.0314 -14.3255,-1.97134 -11.53125,7 0.57259,5.64616 11.15609,1.28141 16,2.65625 5.44951,-0.67549 13.60048,1.35048 17.375,-1 2.19119,-8.40994 -2.5138,-9.9237 -10,-8.65625 -2.03481,-4.25686 -0.29684,-12.2865 -0.875,-18 -1.42727,-4.7394 3.19276,-15.52609 -3,-15.5 -1.4849,0.53644 -4.65658,-1.08331 -5.28125,0.90625 z m -255.375,-0.6875 c -8.61811,-0.0794 -16.50702,8.37756 -13.53125,17.03125 2.17156,9.34735 13.65463,8.63239 20.4375,11.90625 2.78373,4.38054 -4.42992,5.97594 -7.5,4.84375 -3.06463,-0.15367 -5.30922,-2.85046 -5.15625,-5.90625 -5.99326,1.46259 -12.97809,4.33672 -10.375,-4.78125 1.22502,-6.44881 -3.48735,-13.0757 -10.25,-13 -7.45546,-1.31614 -17.82198,1.85894 -18.20392,10.67745 0.0675,2.53545 9.97922,0.85361 3.98517,3.26005 -3.38586,1.9543 -5.16077,5.99677 -4.75,9.84375 -2.10491,-0.0436 -6.77051,1.22192 -5.875,-2.59375 -0.51376,-6.68043 -0.92348,-13.25682 5.71875,-12.78125 3.78305,-10.01222 -7.36241,-5.09592 -5.71875,-12.96875 1.91067,-5.22159 -11.62615,-3.71813 -9.4077,1.46252 -1.09501,4.07076 -7.78732,6.67299 -3.3423,12.50623 5.35923,0.0733 1.25404,9.50924 2.5625,13.6875 -0.82928,6.69926 5.92241,11.78578 12.21875,10.1875 5.59402,0.0196 4.84536,-6.96061 4.40625,-6.9375 2.49615,7.73739 13.59977,9.30245 19.21875,4.09375 -0.15761,4.02936 11.63944,3.49105 10.35868,0.46596 -0.96352,-1.52163 -1.3219,-12.19586 -0.76493,-8.74721 3.20647,11.98028 19.93136,14.15415 29.1875,8.0625 3.71392,-1.71226 5.73044,-7.88798 5.75,-9.9375 0.71099,10.54806 13.29308,16.37404 22.28125,11.5 4.14201,-2.1537 6.79312,-6.36598 7.75,-10.875 -4.03046,0.10803 -9.84277,-3.49647 -11.09375,1.75 -2.50479,3.59075 -8.98034,1.28078 -8.4375,-3.21875 6.42708,0 12.85417,0 19.28125,0 1.65747,-9.13687 -4.40182,-20.31031 -14.6875,-19.59375 -9.03993,-0.53127 -15.87671,8.33726 -15.375,16.875 -1.34738,-8.92996 -11.85591,-10.54256 -18.9375,-12.15625 -3.58012,-0.17454 -3.20478,-4.84708 0.0312,-4.96875 3.35684,-0.88145 7.39719,0.73513 7.8125,4.59375 3.10006,-1.9173 12.6886,-0.30799 9.3125,-5.71875 -2.5384,-6.60533 -10.4484,-8.97754 -16.90625,-8.5625 z m 186.9375,0.0312 c -8.26437,0.27823 -14.67198,7.84843 -15.03125,15.84375 4.51272,0.36204 12.10311,5.80583 11.375,-1.96875 0.79367,-5.59166 10.37204,-4.92445 9.875,0.90625 -1.93418,8.63028 -12.32167,11.34446 -18.3596,16.5939 -4.32965,1.35283 -4.26373,12.68471 0.3596,11.5311 9.76042,0 19.52083,0 29.28125,0 1.42994,-7.76327 -0.54504,-12.12163 -9,-10 -7.47517,0.89854 -4.23636,-1.01206 0.0312,-3.6875 8.24455,-4.2253 12.23482,-15.8852 6.125,-23.5 -3.39128,-4.48845 -9.20131,-6.21684 -14.65625,-5.71875 z m 34.5,-0.0312 c -11.81478,0.41693 -16.92302,14.01753 -15.81346,24.24954 -0.0641,9.48113 6.80764,20.31688 17.37596,19.25046 10.61763,0.0318 16.55213,-11.26597 16.16497,-20.71795 0.90829,-10.67562 -5.24778,-23.93468 -17.72747,-22.78205 z m 67.46875,0 c -11.44546,0.36734 -16.67644,13.31316 -15.84375,23.3125 -0.34703,9.77284 6.43083,21.25159 17.40625,20.1875 10.88477,0.0245 16.72122,-11.7185 16.1875,-21.34375 0.68699,-10.57792 -5.5013,-23.25367 -17.75,-22.15625 z m -427.03125,2.5625 c 0,13.45833 0,26.91667 0,40.375 7.75562,1.53687 11.63414,-0.80336 9.65625,-9 0.37115,-3.84899 -1.08345,-19.45762 1.51602,-8.95412 1.89772,5.98571 3.82017,11.96364 5.70273,17.95412 7.51116,2.49851 8.0967,-4.43764 9.7132,-9.98754 1.47428,-3.45758 4.7489,-18.58117 4.00555,-7.66871 0.66427,5.55448 -1.33297,13.77047 1,17.65625 6.99568,0.97485 12.39764,0.35597 10.0625,-8 0,-11.45833 0,-22.91667 0,-34.375 -4.88864,1.43602 -14.3168,-3.33267 -15.38988,3.31139 -1.90215,4.64563 -3.78998,14.46503 -5.70096,15.92524 -2.10075,-6.4102 -4.15181,-12.83696 -6.28416,-19.23663 -4.0244,1.09865 -13.68294,-2.36619 -14.28125,2 z m 266.03125,0 c 0,13.45833 0,26.91667 0,40.375 6.98999,0.85457 12.85493,0.5841 10.40625,-8 1.00013,-4.78499 -2.33536,-13.0629 3.21875,-15.875 4.77041,-1.37454 3.45951,5.83975 3.5,8.375 1.42727,4.7394 -3.19276,15.52609 3,15.5 8.77062,2.63521 7.79046,-4.48037 7.40625,-11 -0.38701,-7.07527 2.28664,-18.51655 -6.34375,-21.84375 -3.48719,-1.18611 -7.74842,-1.02487 -10.78125,1.28125 0.71697,-6.98781 0.84779,-13.38946 -8,-10.8125 -1.95173,-0.0636 -2.91184,-0.475 -2.40625,2 z m 94,6.5625 c 6.28318,-0.33484 5.97824,8.2283 6.15625,12.59375 0.005,4.45798 -0.0855,13.1831 -6.59375,12.3125 -5.50604,-1.38179 -4.50168,-8.99097 -4.875,-13.34375 0.28199,-4.09536 0.19013,-10.75664 5.3125,-11.5625 z m 67.46875,0 c 6.29691,-0.33108 5.9951,8.27674 6.15625,12.59375 0.20698,4.6488 -0.41132,13.94256 -7.3125,12.1875 -5.17126,-2.97421 -3.91231,-10.44041 -4.03125,-15.5625 0.30131,-3.4656 0.94497,-8.75518 5.1875,-9.21875 z m -192.5,0.59375 c -2.06082,-0.71963 -5.63184,4.03879 -5.15625,0.8125 -7.75822,-1.4978 -11.81206,0.70877 -9.78125,9 0,7.80208 0,15.60417 0,23.40625 6.98999,0.85457 12.85493,0.5841 10.40625,-8 0.0746,-4.51187 -1.46649,-14.31913 5.59375,-14.3125 4.15265,-0.91796 0.10737,4.65911 1.28125,7.03125 -0.33357,8.79622 7.26978,17.77842 16.59375,15.6875 6.90454,-0.81763 11.01537,-7.62365 11.5,-14.0625 -3.78536,0.24791 -10.02383,-3.16967 -10.3125,2.25 -1.33223,4.27783 -7.18823,2.17723 -6.78125,-1.90625 -1.18444,-3.8768 0.7037,-13.22258 6.25,-9.5625 1.15272,4.0702 2.38001,5.64225 7.21025,3.84371 4.27042,0.85984 3.59256,-2.45031 2.571,-5.12496 -2.57739,-11.08374 -19.61496,-11.68214 -24.46875,-2 -2.22221,5.60321 -1.14739,-1.26956 -1.375,-4.15625 0.84735,-3.35113 -1.02212,-3.03045 -3.53125,-2.90625 z m -176.46875,0.25 c -11.26303,-0.0799 -17.14443,13.19236 -13.84375,22.84375 2.60587,11.99279 20.49228,14.49223 26.96875,4.4375 1.39338,-2.5169 4.47524,-7.57956 -0.77224,-6.69642 -3.77704,-0.96792 -6.78228,-1.38779 -8.00901,2.54017 -2.77985,3.12604 -8.67076,0.74737 -8.1875,-3.5625 6.42708,0 12.85417,0 19.28125,0 1.49216,-9.64211 -4.50077,-20.66566 -15.4375,-19.5625 z m 143.65625,0 c -6.92503,-0.52178 -14.60928,4.25794 -14.4375,11.78125 3.656,0.61393 9.05425,0.44179 3.46875,2.71875 -7.53271,5.07606 -3.98607,18.1506 5,18.90625 3.7187,0.92871 8.31065,-0.97815 10.75,-2.5625 0.14376,3.50472 12.50708,3.57863 10.15625,-0.375 -2.68553,-8.43715 1.89267,-18.45853 -2.78125,-26.3125 -2.83052,-3.74989 -7.79287,-4.31594 -12.15625,-4.15625 z m -143.03125,8.46875 c 1.9216,-0.53892 6.01156,3.80977 1.90625,2.9375 -2.0068,-0.19549 -8.21701,1.10067 -4.75,-1.9375 0.80454,-0.70422 1.77456,-1.0271 2.84375,-1 z m 112.90625,0 c 1.9216,-0.53892 6.01156,3.80977 1.90625,2.9375 -2.04213,-0.11207 -8.18623,0.95411 -4.6875,-1.96875 0.76182,-0.71049 1.76933,-0.98684 2.78125,-0.96875 z m -64.3125,0.0312 c 2.37926,-1.17131 6.27984,3.15727 1.96875,2.5625 -2.15921,-0.4954 -8.64328,2.47698 -5.96875,-1.34375 1.02172,-1.07895 2.616,-1.19264 4,-1.21875 z m 94.34375,0 c 2.30576,-1.11621 6.35467,3.1017 2.03125,2.5625 -1.96422,-0.61263 -6.7113,1.91069 -6.625,-0.15625 0.41382,-2.05713 2.87723,-2.40688 4.59375,-2.40625 z m -90.34375,10.53125 c 0.91455,4.48784 -6.31141,8.17679 -8.40625,3.84375 -0.45966,-3.90932 6.77699,-4.64938 8.40625,-3.84375 z m 94.375,0 c 0.84114,4.45632 -6.17101,8.15444 -8.40625,3.875 -0.57125,-3.98035 6.76859,-4.63933 8.40625,-3.875 z"
         style="font-size:57.57772445999999900px;font-style:normal;font-weight:normal;fill:#ffffff;fill-opacity:1;stroke:none;font-family:Franklin Gothic Medium;-inkscape-font-specification:Franklin Gothic Medium" />
      <path
         id="text3905"
         d="m 307.875,72.78125 c -12.28029,0.254108 -19.05529,13.912281 -17.34375,24.9375 0.54079,9.77278 8.47439,19.79957 19.0625,18.5625 12.05807,-0.12484 18.74975,-13.19172 17.375,-24.03125 -0.2969,-10.179532 -8.01802,-20.560106 -19.09375,-19.46875 z m -65.84375,2.5625 c 0,13.458333 0,26.91667 0,40.375 9.06617,-1.1027 19.446,2.44992 27.6875,-2.375 6.94505,-4.44841 6.09747,-15.795559 0.125,-19.90625 7.42068,-6.118796 2.56851,-19.924255 -7.21875,-19.90625 -6.85244,-0.434962 -13.73145,-0.06593 -20.59375,-0.1875 l 0,1 0,1 z m 34.96875,0 c 0,13.458333 0,26.91667 0,40.375 6.98827,0.67577 13.55249,0.92749 10.9375,-8 0,-11.458333 0,-22.916667 0,-34.375 -3.01661,1.001738 -11.28083,-2.202404 -10.9375,2 z m 52.53125,0 c 0,13.458333 0,26.91667 0,40.375 6.9881,0.68602 13.5118,0.90764 10.90625,-8 -0.056,-6.22402 6.80496,-13.377012 7.61396,-3.06313 2.72489,4.56098 2.51217,13.50672 9.91729,11.06313 9.51516,2.40518 4.86001,-4.64441 2.49022,-10.1678 -1.87535,-6.008901 -6.36853,-12.32233 -6.62324,-18.142708 C 356.3846,82.978601 363.07694,76.43088 363,73.34375 c -6.03206,-0.124416 -12.66912,-1.390624 -15.09079,5.642582 -3.25888,3.717177 -9.15268,15.451249 -7.47171,4.138668 1.45483,-7.683995 -0.62625,-11.832079 -8.90625,-9.78125 -2.05622,-0.270399 -2.2704,-0.05622 -2,2 z m 35.3125,0 c 0,13.458333 0,26.91667 0,40.375 9.64583,0 19.29167,0 28.9375,0 1.43959,-7.76251 -0.56829,-12.07755 -9,-9.96875 -6.40355,2.92776 -13.33902,-3.38756 -7.03125,-6.71875 5.49609,-0.597661 15.01561,2.82811 12.28125,-6 0.98568,-6.933598 -9.74233,-2.153502 -14.28125,-3.5625 -2.92892,-9.064339 6.28535,-5.985486 12,-6.40625 7.41918,4.056578 8.19015,-10.499191 2.78125,-9.71875 -8.5625,0 -17.125,0 -25.6875,0 l 0,1 0,1 z m 30.90625,0 c 0,13.458333 0,26.91667 0,40.375 7.75562,1.53687 11.63414,-0.80336 9.65625,-9 0.37115,-3.84899 -1.08345,-19.457622 1.51602,-8.954121 1.89772,5.985711 3.82017,11.963641 5.70273,17.954121 7.51116,2.49851 8.0967,-4.43764 9.7132,-9.98754 1.47428,-3.45758 4.7489,-18.581169 4.00555,-7.66871 0.66427,5.55448 -1.33297,13.77047 1,17.65625 6.99568,0.97485 12.39764,0.35597 10.0625,-8 0,-11.458333 0,-22.916667 0,-34.375 -4.88864,1.436017 -14.3168,-3.332666 -15.38988,3.311393 -1.90215,4.645625 -3.78998,14.465029 -5.70096,15.925236 -2.10075,-6.410201 -4.15181,-12.83696 -6.28416,-19.236629 -4.0244,1.098654 -13.68294,-2.366192 -14.28125,2 z m 46.125,0 c 0,13.458333 0,26.91667 0,40.375 6.9881,0.68602 13.5118,0.90764 10.90625,-8 0,-11.458333 0,-22.916667 0,-34.375 -3.00957,0.99902 -11.25253,-2.196822 -10.90625,2 z m 15.40625,0 c 0,13.458333 0,26.91667 0,40.375 6.9881,0.68602 13.5118,0.90764 10.90625,-8 -0.056,-6.22402 6.80496,-13.377012 7.61396,-3.06313 2.72489,4.56098 2.51217,13.50672 9.91729,11.06313 4.11234,-1.06705 11.57827,2.5283 12.97018,-2.32445 -0.0724,-8.47857 7.05305,-6.9961 13.24857,-6.80055 3.14223,3.47133 2.48925,12.23998 10.375,9.125 9.0934,2.24369 1.74501,-7.34859 1.10045,-12.10564 C 520.02298,93.524108 516.65113,83.428979 513.25,73.34375 508.07534,73.941302 500.13145,70.713926 500.14441,78.514505 496.71086,88.843003 493.2773,99.171502 489.84375,109.5 486.89583,102.40625 483.94792,95.3125 481,88.21875 c 3.58334,-4.958325 7.16632,-9.91692 10.75,-14.875 -5.7494,0.43774 -13.07282,-2.19749 -15.49753,4.837568 -2.95474,2.791815 -9.47102,16.41979 -8.06497,5.943682 0.72736,-6.987776 0.82776,-13.348593 -8,-10.78125 -1.88027,0.151472 -3.62115,-0.864906 -2.90625,2 z M 308.75,82.3125 c 7.04315,0.221017 6.9577,9.705462 6.6875,14.875 0.88344,5.38202 -4.54926,12.22961 -10.0625,8.59375 -4.92877,-5.10197 -4.07871,-13.860151 -1.96875,-20.1875 1.01972,-2.098119 2.99828,-3.334951 5.34375,-3.28125 z m -49.875,0.53125 c 4.98987,-0.93166 4.79783,7.320347 0.0625,6.625 -7.75865,4.022821 -9.35897,-9.408005 -1.34375,-6.625 l 1,0 0.28125,0 z m 250.75,14.21875 c -9.43176,5.45296 -2.85963,-12.956235 -1.90742,-5.806111 0.6358,1.93537 1.27161,3.870741 1.90742,5.806111 z m -250.15625,1.875 c 5.05947,-0.941174 5.61933,7.37469 0.5625,7 -6.32377,3.48946 -10.94466,-5.2709 -5.4375,-7 1.625,0 3.25,0 4.875,0 z"
         style="font-size:57.57772445999999900px;font-style:normal;font-weight:normal;fill:#ffffff;fill-opacity:1;stroke:none;font-family:Franklin Gothic Medium;-inkscape-font-specification:Franklin Gothic Medium" />
    </g>
    <image
       y="19.165606"
       x="30.571445"
       id="image2826"
       height="198.69659"
       width="203.14281"
       xlink:href="file:///C:/Users/Sven/Desktop/2048px-t.png"
       inkscape:export-filename="C:\Users\Sven\Desktop\DESIGN\src\header.png"
       inkscape:export-xdpi="94"
       inkscape:export-ydpi="94" />
    <text
       xml:space="preserve"
       style="font-size:57.57772446px;font-style:normal;font-weight:normal;fill:#000000;fill-opacity:1;stroke:none;font-family:Franklin Gothic Medium;-inkscape-font-specification:Franklin Gothic Medium"
       x="239.82027"
       y="156.15163"
       id="text3604"
       inkscape:export-filename="C:\Users\Sven\Desktop\DESIGN\src\header.png"
       inkscape:export-xdpi="94"
       inkscape:export-ydpi="94"><tspan
         sodipodi:role="line"
         id="tspan3606"
         x="239.82027"
         y="156.15163">MetaSearch 2010</tspan></text>
    <text
       id="text3710"
       y="113.72521"
       x="239.82027"
       style="font-size:57.57772446px;font-style:normal;font-weight:normal;fill:#000000;fill-opacity:1;stroke:none;font-family:Franklin Gothic Medium;-inkscape-font-specification:Franklin Gothic Medium"
       xml:space="preserve"
       inkscape:export-filename="C:\Users\Sven\Desktop\DESIGN\src\header.png"
       inkscape:export-xdpi="94"
       inkscape:export-ydpi="94"><tspan
         y="113.72521"
         x="239.82027"
         id="tspan3712"
         sodipodi:role="line">BIOKEMIKA</tspan></text>
  </g>
</svg>
